<?xml version="1.0" encoding="utf-8"?>
<!-- Generator: Adobe Illustrator 28.2.0, SVG Export Plug-In . SVG Version: 6.00 Build 0)  -->
<svg version="1.1" id="_레이어_1" xmlns="http://www.w3.org/2000/svg" xmlns:xlink="http://www.w3.org/1999/xlink" x="0px"
	 y="0px" viewBox="0 0 170 230" style="enable-background:new 0 0 170 230;" xml:space="preserve">
<style type="text/css">
	.st0{fill:#FFFFFF;}
	.st1{fill:#6D6B67;}
</style>
<g>
	<path class="st0" d="M161.5,218.9l-7,7.2l-7-7.2l-7,7.2l-7-7.2l-7,7.2l-7-7.2l-6.9,7.2l-7-7.2l-7,7.2l-7-7.2l-7,7.2l-7-7.2l-7,7.2
		l-6.9-7.2l-7,7.2l-6.9-7.2l-6.9,7.2l-6.9-7.2l-6.9,7.2l-6.9-7.2l-6.5,6.7l0.3,0.3l-0.6,0l-0.1,0.1l-0.1-0.1h-0.6l0.3-0.3l-6.5-6.7
		l-6.9,7.2V5.2c0-2.1,1.7-3.7,3.8-3.7h159.3c2.1,0,3.8,1.7,3.8,3.7v220.9L161.5,218.9z"/>
	<path class="st0" d="M15.5,225.7l6.9-7.2l6.9,7.2l6.9-7.2l6.9,7.2l6.9-7.2l6.9,7.2l7-7.2l6.9,7.2l7-7.2l7,7.2l7-7.2l7,7.2l7-7.2
		l0.1,0.1l6.9,7.1l6.9-7.2l0.1,0.1l6.9,7.1l7-7.2l0.1,0.1l6.9,7.1l7-7.2l0.1,0.1l6.9,7.1l7-7.2l0.1,0.1l6.6,6.8V5.2
		c0-1.9-1.6-3.4-3.5-3.4H5.3c-1.9,0-3.5,1.5-3.5,3.4v220.1l6.6-6.9L15.5,225.7L15.5,225.7z"/>
	<path class="st1" d="M161.5,221.1l-7,7.2l-1.3-1.4l-5.6-5.8l-7,7.2l-1.3-1.4l-5.6-5.8l-7,7.2l-1.3-1.4l-5.6-5.8l-6.9,7.2l-1.3-1.4
		l-5.6-5.8l-7,7.2l-1.3-1.4l-5.6-5.8l-7,7.2l-1.3-1.4l-5.6-5.8l-7,7.2l-7-7.2l-7,7.2l-6.9-7.2l-7,7.2l-6.9-7.2l-7,7.2l-6.9-7.2
		l-7,7.2l-6.9-7.2l-5.3,5.5L0,229.9V5.2c0-2.9,2.4-5.3,5.3-5.3h159.3c3,0,5.4,2.4,5.4,5.3v224.7L161.5,221.1z M43.2,225.8l6.9-7.2
		l6.9,7.2l7-7.2l6.9,7.2l7-7.2l7,7.2l7-7.2l7,7.2l7-7.2l7,7.2l6.9-7.2l7,7.2l7-7.2l7,7.2l7-7.2l7,7.2l7-7.2l6.8,7V5.2
		c0-2-1.6-3.5-3.6-3.5H5.3c-2,0-3.6,1.6-3.6,3.5v220.4l6.7-7l6.9,7.2l6.9-7.2l6.9,7.2l6.9-7.2L43.2,225.8z"/>
</g>
</svg>
