<?xml version="1.0" encoding="UTF-8"?>
<svg id="_레이어_1" data-name="레이어 1" xmlns="http://www.w3.org/2000/svg" viewBox="0 0 170 230">
  <defs>
    <style>
      .cls-1 {
        fill: #6d6b67;
      }

      .cls-1, .cls-2 {
        stroke-width: 0px;
      }

      .cls-2 {
        fill: #fff;
      }
    </style>
  </defs>
  <path class="cls-2" d="M15.53,225.49l6.94-7.17,6.94,7.17,6.94-7.17,6.94,7.17,6.94-7.17,6.94,7.17,6.95-7.17,6.94,7.17,6.95-7.17,6.95,7.17,6.95-7.17,6.95,7.17,6.95-7.17.08.08,6.87,7.09,6.94-7.17.08.08,6.87,7.09,6.95-7.17.08.08,6.87,7.09,6.95-7.17.08.08,6.87,7.09,6.95-7.17.08.08,6.58,6.79V5.38c0-1.9-1.55-3.44-3.46-3.44H5.42c-1.91,0-3.46,1.54-3.46,3.44v219.8l6.64-6.86,6.94,7.17Z"/>
  <path class="cls-1" d="M164.58,1.94c1.91,0,3.46,1.54,3.46,3.44v219.81l-6.58-6.79-.08-.08-6.95,7.17-6.87-7.09-.08-.08-6.95,7.17-6.87-7.09-.08-.08-6.95,7.17-6.87-7.09-.08-.08-6.94,7.17-6.87-7.09-.08-.08-6.95,7.17-6.95-7.17-6.95,7.17-6.95-7.17-6.95,7.17-6.94-7.17-6.95,7.17-6.94-7.17-6.94,7.17-6.94-7.17-6.94,7.17-6.94-7.17-6.94,7.17-6.94-7.17-6.64,6.86V5.38c0-1.9,1.55-3.44,3.46-3.44h159.17M164.58,0H5.42C2.43,0,0,2.41,0,5.38v224.62l3.36-3.48,5.23-5.4,5.53,5.72,1.41,1.46,1.41-1.46,5.54-5.72,5.53,5.72,1.41,1.46,1.41-1.46,5.54-5.72,5.53,5.72,1.41,1.46,1.41-1.46,5.54-5.72,5.53,5.72,1.41,1.46,1.41-1.46,5.54-5.72,5.54,5.72,1.41,1.46,1.41-1.46,5.54-5.72,5.54,5.72,1.41,1.45,1.41-1.45,5.54-5.72,5.54,5.72,1.41,1.45,1.41-1.45,5.54-5.72,5.54,5.72,1.41,1.45,1.41-1.46,5.53-5.72,5.54,5.72,1.41,1.45,1.41-1.45,5.54-5.72,5.54,5.72,1.41,1.45,1.41-1.45,5.54-5.72,5.54,5.72,1.41,1.45,1.41-1.45,5.54-5.72,5.25,5.42,3.36,3.47V5.38c0-2.97-2.43-5.38-5.42-5.38h0Z"/>
</svg>